<svg xmlns="http://www.w3.org/2000/svg" viewBox="0 0 64 64">
  <rect width="64" height="64" rx="10" fill="#050505"/>
  <path d="M32,26 C24,23 14,18 2,14 C2,18 18,22 32,29 Z" fill="#c9a227" opacity="0.9"/>
  <path d="M32,26 C23,28 13,25 2,22 C2,26 18,27 32,32 Z" fill="#c9a227" opacity="0.6"/>
  <path d="M32,26 C40,23 50,18 62,14 C62,18 46,22 32,29 Z" fill="#c9a227" opacity="0.9"/>
  <path d="M32,26 C41,28 51,25 62,22 C62,26 46,27 32,32 Z" fill="#c9a227" opacity="0.6"/>
  <circle cx="32" cy="27" r="2.5" fill="#c9a227"/>
</svg>
